<svg width="64" height="64" viewBox="0 0 64 64" fill="none" xmlns="http://www.w3.org/2000/svg">
  <!-- 背景円 -->
  <circle cx="32" cy="32" r="30" fill="url(#gradient1)" stroke="#2c3e50" stroke-width="2"/>
  
  <!-- タイムライン軸 -->
  <line x1="12" y1="32" x2="52" y2="32" stroke="#2c3e50" stroke-width="3"/>
  
  <!-- 時代マーカー -->
  <circle cx="18" cy="32" r="4" fill="#e74c3c"/>
  <circle cx="32" cy="32" r="4" fill="#3498db"/>
  <circle cx="46" cy="32" r="4" fill="#f39c12"/>
  
  <!-- 人物アイコン -->
  <circle cx="18" cy="22" r="3" fill="#2c3e50"/>
  <path d="M15 28 Q18 26 21 28" stroke="#2c3e50" stroke-width="1.5" fill="none"/>
  
  <circle cx="32" cy="22" r="3" fill="#2c3e50"/>
  <path d="M29 28 Q32 26 35 28" stroke="#2c3e50" stroke-width="1.5" fill="none"/>
  
  <circle cx="46" cy="22" r="3" fill="#2c3e50"/>
  <path d="M43 28 Q46 26 49 28" stroke="#2c3e50" stroke-width="1.5" fill="none"/>
  
  <!-- 組織アイコン -->
  <rect x="16" y="38" width="4" height="4" fill="#2c3e50" rx="1"/>
  <rect x="30" y="38" width="4" height="4" fill="#2c3e50" rx="1"/>
  <rect x="44" y="38" width="4" height="4" fill="#2c3e50" rx="1"/>
  
  <!-- グラデーション定義 -->
  <defs>
    <linearGradient id="gradient1" x1="0%" y1="0%" x2="100%" y2="100%">
      <stop offset="0%" style="stop-color:#f8f9fa;stop-opacity:1" />
      <stop offset="100%" style="stop-color:#e9ecef;stop-opacity:1" />
    </linearGradient>
  </defs>
</svg>